<svg version="1.1"  xmlns="http://www.w3.org/2000/svg" xmlns:xlink="http://www.w3.org/1999/xlink" x="0px" y="0px"
	 viewBox="0 0 24 24" style="enable-background:new 0 0 24 24;" xml:space="preserve">
<path style="fill:#3D5A98;" d="M12,0C5.372,0,0,5.373,0,12c0,6.627,5.372,12,12,12c6.627,0,12-5.373,12-12C24,5.373,18.627,0,12,0z
	 M15.191,11.801h-2.027c0,3.24,0,7.23,0,7.23h-3.006c0,0,0-3.951,0-7.23H8.73V9.247h1.428V7.594c0-1.183,0.563-3.032,3.033-3.032
	l2.225,0.009v2.478c0,0-1.353,0-1.615,0c-0.264,0-0.637,0.132-0.637,0.695v1.503h2.29L15.191,11.801z"/>
</svg>
