<svg version="1.1"  xmlns="http://www.w3.org/2000/svg" xmlns:xlink="http://www.w3.org/1999/xlink" x="0px" y="0px"
	 viewBox="0 0 800 200" style="enable-background:new 0 0 800 200;" xml:space="preserve">
<g>
	<rect style="fill:none;" width="200" height="200"/>
	<rect x="200" style="fill:none;" width="200" height="200"/>
	<rect x="400" style="fill:none;" width="200" height="200"/>
	<rect x="600" style="fill:none;" width="200" height="200"/>
	<g>
		<g>
			<defs>
				<circle id="SVGID_1_" cx="300" cy="100" r="75"/>
			</defs>
			<clipPath id="SVGID_2_">
				<use xlink:href="#SVGID_1_"  style="overflow:visible;"/>
			</clipPath>
			<g style="clip-path:url(#SVGID_2_);">
				<g>
					<path style="fill:#F5F5F5;" d="M329.593,137.943l15.919-30.923l-4.366-0.651c-1.818-0.284-3.242-1.774-3.265-3.728L337.428,94
						h-10.502h-9.31l-0.461,9.024c-0.094,1.838-1.469,3.174-3.288,3.457l-4.152,0.547l15.966,30.964
						C326.498,139.584,328.774,139.535,329.593,137.943z"/>
					<path style="fill:#E0E1E2;" d="M336.501,100.379l1.222-1.269l-0.294-5.882h-10.502h-9.31l-0.27,5.515l1.575,1.641
						c1.4,1.457,3.342,2.285,5.364,2.285h3.491v-0.004h3.362C333.156,102.665,335.102,101.836,336.501,100.379z"/>
					<path style="fill:#E0E1E2;" d="M343.029,71.093l1.161,0.074c1.742,0.482,3.623,2.125,3.182,4.779
						c-0.398,2.411-0.591,2.615-1.081,5.607c-0.694,4.233-4.156,2.855-4.156,2.855L343.029,71.093z"/>
					<path style="fill:#E0E1E2;" d="M312.571,71.093l-1.16,0.074c-1.742,0.482-3.622,2.125-3.184,4.779
						c0.402,2.411,0.594,2.615,1.086,5.607c0.691,4.233,4.155,2.855,4.155,2.855L312.571,71.093z"/>
					<path style="fill:#F5F5F5;" d="M327.645,55.485v0.007l-15.766-0.367V86.87c0,2.028,0.787,3.989,2.195,5.45l4.847,5.05
						c1.4,1.454,3.342,2.282,5.364,2.282h3.491V99.65h3.362c2.018,0,3.965-0.829,5.363-2.286l4.848-5.047
						c1.405-1.463,2.195-3.423,2.195-5.453V55.121L327.645,55.485z"/>
					<path style="fill:#C2CFD3;" d="M341.146,106.369c-1.311-0.206-2.406-1.238-2.93-2.529l-10.702,10.378l-10.279-13.278
						l-0.081,1.697c-0.094,1.838-1.469,3.367-3.288,3.65l-11.488,1.779v20.025h51.77v-19.784L341.146,106.369z"/>
					<g>
						<path style="fill:#78828E;" d="M329.593,137.943l10.516-20.575c-3.518,3.52-8.382,6.973-12.398,6.973
							c-3.754,0-11.056-4.235-12.791-7.297l10.761,20.899C326.498,139.535,328.774,139.535,329.593,137.943z"/>
						<polygon style="fill:#4A4F53;" points="313.467,114.221 313.467,114.218 313.467,114.218 						"/>
					</g>
					<path style="fill:#EC8658;" d="M329.412,126.315c-0.151-0.781-0.04-1.396,0.28-2.034l1.949-3.939l-3.957-6.922v-0.164
						l-0.048,0.082l-0.046-0.082v0.164l-3.958,6.922l1.972,4.044c0.669,1.134,0.399,1.461,0.288,2.02l-2.268,11.646l3.965,4.22
						v0.114l0.046-0.057l0.048,0.057v-0.114l4.043-4.22L329.412,126.315z"/>
					<g>
						<path style="fill:#DDE4E8;" d="M317.298,101.28c-0.835-0.971-1.223-1.227-1.803-0.066l-3.026,4.892l9.338,15.779
							c0.646,1.096,1.159,1.03,1.739-0.064l4.121-8.564L317.298,101.28z"/>
						<path style="fill:#DDE4E8;" d="M337.973,101.28c0.84-0.971,1.225-1.227,1.803-0.066l3.027,4.892l-9.337,15.779
							c-0.644,1.096-1.16,1.03-1.74-0.064l-4.121-8.564L337.973,101.28z"/>
					</g>
					<path style="fill:#586273;" d="M331.1,43.193c0,0-2.011-0.032-6.629,0c-9.158,0.065-19.362,6.617-17.252,18.414l2.236,9.853
						c0.592,2.816,2.537,3.528,2.537,2.005V60.626c-0.024-1.764,0.622-3.174,1.475-4.202l3.281,4.347
						c1.177,1.559,3.288,2.183,5.169,1.534l19.68-6.805c2.16,1.714,1.97,4.786,1.97,5.418v12.294
						c0.152,1.51,1.904,1.557,2.585-1.678c0.256-1.215,2.295-10.358,2.295-10.358C350.608,50.963,340.557,43.193,331.1,43.193z"/>
					<path style="fill:#2C3E50;" d="M375.062,121.357c0-7.538-4.333-11.484-11.494-12.99l-17.872-1.709l-0.183,0.358l-15.919,30.925
						c-0.819,1.592-3.094,1.593-3.912,0.001l-15.966-31.012l-0.137-0.267l-17.874,1.714c-7.156,1.506-11.492,5.441-11.492,12.979
						L279.353,176h1.448h14.961l0.722-35.01c0.06-0.524,0.284-0.907,0.81-0.895c0.522,0.01,0.706,0.445,0.706,0.963V176h59v-34.917
						c0-0.522,0.344-0.941,0.863-0.923c0.551,0.022,0.96,0.422,1.023,0.969L359.542,176h14.929h1.456L375.062,121.357z"/>
				</g>
				<g>
					<path style="fill:#EC8658;" d="M292.914,53.015c-3.031-1.031-6.696-0.439-6.696-0.439s-7.354-7.319-17.24-4.443
						c-5.446,1.587-15.645,6.054-15.645,22.445c0,9.37,2.071,14.408,4.604,18.94c6.967,12.481,19.723,14.118,19.723,14.118
						s11.401-0.567,19.724-14.118c2.713-4.422,4.683-9.57,4.683-18.94C302.067,61.942,299.791,55.355,292.914,53.015z"/>
					<path style="fill:#EAE7E5;" d="M313.633,122.507c-1.024-5.182-4.244-9.395-10.584-10.273l-9.599-2.052v-0.001l-1.72-0.367
						c-2.632-0.563-4.562-2.839-4.685-5.524l-0.209-4.59l-0.135-2.91h-8.247h-0.718h-0.718h-8.246l-0.134,2.91l-0.211,4.59
						c-0.124,2.685-2.053,4.961-4.686,5.524l-1.719,0.367v0.001l-9.599,2.052c-6.342,0.878-9.56,5.091-10.584,10.273L237.661,176
						h9.906l4.987-34.635l0.042,0.176v0.002l2.098,11.062c2.239,13.137,2.114,15.623-0.218,23.394h46.565
						c-1.989-6.788-2.601-10.434-0.263-23.394l2.095-11.062v-0.002l0.042-0.176L307.904,176h9.908L313.633,122.507z"/>
					<path style="fill:#E0E1E2;" d="M286.863,100.345l-0.028-0.645l-0.135-2.91h-8.247h-0.718h-0.718h-8.246l-0.134,2.91
						l-0.031,0.722c2.059,2.022,5.053,3.906,9.103,3.906C281.762,104.331,284.761,102.462,286.863,100.345z"/>
					<path style="fill:#CED7E0;" d="M300.837,122.133c-0.843,0-18.385-10.452-21.659-7.462h-3.026
						c-3.273-2.989-19.808,6.953-20.651,6.953c0,0-3.414,15.614-2.912,19.557l-0.025,0.22l0.033,0.141v0.002l0.168,0.879
						c0.164,1.105,0.35,2.108,0.569,3.012l1.36,7.171c2.239,13.137,2.114,15.623-0.218,23.394h46.565
						c-1.989-6.788-2.601-10.434-0.263-23.394l1.361-7.189c0.218-0.897,0.404-1.894,0.568-2.989l0.167-0.883v-0.002l0.033-0.141
						l-0.025-0.22C303.385,137.238,300.837,122.133,300.837,122.133z"/>
					<path style="fill:#78828E;" d="M266.139,108.679c-0.691,0.541-1.496,0.943-2.398,1.135l-1.719,0.367v0.001l-9.599,2.052
						c-6.342,0.878-9.56,5.091-10.584,10.273L237.66,176h10.25l4.644-34.635l0.042,0.176v0.002l2.098,11.062
						c2.239,13.137,2.114,15.623-0.218,23.394h20.007v-22.558c0-3.834-0.405-7.657-1.208-11.408L266.139,108.679z"/>
					<path style="fill:#78828E;" d="M313.633,122.507c-1.024-5.182-4.244-9.395-10.584-10.273l-9.599-2.052v-0.001l-1.72-0.367
						c-0.899-0.192-1.704-0.594-2.395-1.135l-7.042,33.271c-0.795,3.752-1.195,7.578-1.195,11.412V176h19.945
						c-1.989-6.788-2.601-10.434-0.263-23.394l2.095-11.062v-0.002l0.042-0.176L307.531,176h10.28L313.633,122.507z"/>
					<path style="fill:#E9EDF2;" d="M266.401,105.456c0.744-0.49,1.05-0.427,1.893,0.248l8.638,8.022
						c1.225,1.138,0.927,2.239-0.355,3.789c0,0-9.326,11.146-13.325-2.138l-1.084-3.624c-0.293-1.226-0.468-1.404,0.342-2.341
						L266.401,105.456z"/>
					<path style="fill:#E9EDF2;" d="M289.008,105.456c-0.742-0.49-1.051-0.427-1.891,0.248l-8.637,8.022
						c-1.227,1.138-0.928,2.239,0.354,3.789c0,0,9.582,11.146,13.325-2.138l1.084-3.624c0.293-1.226,0.469-1.404-0.343-2.341
						L289.008,105.456z"/>
					<path style="fill:#F5F5F5;" d="M277.681,59.235l-14.366,0.06v26.203c0,1.408,0.84,5.572,1.858,7.265
						c0,0,3.844,8.706,12.508,8.706c9.256,0.007,12.982-9.852,12.982-9.852c0.639-1.509,1.332-5.244,1.378-6.119V59.295
						L277.681,59.235z"/>
					<path style="fill:#EC8658;" d="M259.791,79.553c0,0,10.23,2.03,16.573-7.67c7.792-11.92,12.256-10.284,12.256-10.284
						l-1.064-5.07l-26.693-1.174l-1.073,23.028V79.553z"/>
					<path style="fill:#EC8658;" d="M286.218,55.355c0,0-12.664,5.939-1.977,6.873c9.05,0.792,7.8,13.322,7.8,13.322l2.091-20.974
						L286.218,55.355z"/>
				</g>
			</g>
		</g>
		<circle style="fill:none;stroke:#666666;stroke-width:2;stroke-miterlimit:10;" cx="300" cy="100" r="75"/>
	</g>
	<g>
		<g>
			<defs>
				<circle id="SVGID_3_" cx="700" cy="100" r="75"/>
			</defs>
			<clipPath id="SVGID_4_">
				<use xlink:href="#SVGID_3_"  style="overflow:visible;"/>
			</clipPath>
			<g style="clip-path:url(#SVGID_4_);">
				<g>
					<g>
						<g>
							<polygon style="fill:#787088;" points="755.379,132.128 753.344,130.093 746.565,136.877 746.565,111.654 741.546,111.654 
								741.546,174.748 746.565,174.748 746.565,140.947 							"/>
							<path style="fill:#8DB142;" d="M755.21,93.169c0.592-1.461,0.925-3.049,0.925-4.714c0-6.918-5.601-12.53-12.522-12.53
								c-6.918,0-12.525,5.612-12.525,12.53c0,1.7,0.341,3.32,0.96,4.797c-5.357,1.426-9.325,6.261-9.325,12.058
								c0,6.926,5.604,12.53,12.522,12.53c3.303,0,6.282-1.295,8.529-3.389c2.234,2.094,5.205,3.389,8.508,3.389
								c6.918,0,12.53-5.604,12.53-12.53C764.812,99.408,760.704,94.488,755.21,93.169z"/>
							<path style="fill:#6B8729;" d="M755.21,93.169c0.592-1.461,0.925-3.049,0.925-4.714c0-6.918-5.601-12.53-12.522-12.53
								c-6.918,0-12.525,5.612-12.525,12.53c0,0.957,0.132,1.877,0.338,2.77c-0.126-0.657-0.204-1.333-0.204-2.027
								c0-6.095,4.942-11.039,11.036-11.039c6.097,0,11.034,4.944,11.034,11.039c0,1.469-0.295,2.866-0.815,4.156
								c4.84,1.161,8.459,5.497,8.459,10.696c0,6.103-4.944,11.042-11.039,11.042c-2.912,0-5.529-1.142-7.497-2.987
								c-1.981,1.845-4.606,2.987-7.516,2.987c-6.095,0-11.034-4.939-11.034-11.042c0-5.108,3.496-9.366,8.218-10.624
								c-0.022-0.051-0.03-0.11-0.051-0.163c-5.341,1.437-9.296,6.261-9.296,12.047c0,6.926,5.606,12.53,12.522,12.53
								c3.303,0,6.282-1.295,8.529-3.389c2.234,2.094,5.205,3.389,8.508,3.389c6.918,0,12.53-5.604,12.53-12.53
								C764.812,99.408,760.704,94.488,755.21,93.169z"/>
							<path style="fill:#8DB142;" d="M760.538,126.559c0.182-0.437,0.282-0.92,0.282-1.429c0-2.105-1.708-3.807-3.802-3.807
								c-2.11,0-3.821,1.703-3.821,3.807c0,0.515,0.113,1.003,0.303,1.461c-1.627,0.426-2.839,1.896-2.839,3.665
								c0,2.102,1.705,3.813,3.818,3.813c0.987,0,1.901-0.399,2.588-1.035c0.681,0.636,1.587,1.035,2.588,1.035
								c2.102,0,3.805-1.711,3.805-3.813C763.458,128.455,762.208,126.967,760.538,126.559z"/>
						</g>
						<g>
							<g>
								<polygon style="fill:#474047;" points="681.675,59.979 630,111.654 733.354,111.654 								"/>
								<polygon style="fill:#F4DDB8;" points="723.235,170.453 640.114,170.453 640.114,111.654 681.441,70.203 723.235,111.654 
																	"/>
								<rect x="687.324" y="146.575" style="fill:#DBBF95;" width="23.298" height="4.293"/>
								<g>
									<path style="fill:#EC5946;" d="M672.63,171.825h-19.764v-46.116h19.764V171.825z"/>
								</g>
								<rect x="654.239" y="127.082" style="fill:#FFA080;" width="17.018" height="43.37"/>
								<g>
									<path style="fill:#EC5946;" d="M707.574,145.803h-17.206v-20.094h17.206V145.803z"/>
								</g>
								<rect x="691.74" y="127.082" style="fill:#A0BEC9;" width="14.46" height="17.348"/>
								<g>
									<polygon style="fill:#FAC845;" points="656.757,84.956 649.678,91.984 649.678,76.282 656.757,76.282 									"/>
									<rect x="649.678" y="76.282" style="fill:#DBA731;" width="7.079" height="1.88"/>
									<rect x="648.206" y="70.203" style="fill:#EC5946;" width="10.023" height="6.079"/>
								</g>
								<rect x="687.324" y="144.43" style="fill:#FAC845;" width="23.298" height="4.293"/>
							</g>
							<g>
								<rect x="673.116" y="170.453" style="fill:#474047;" width="54.621" height="4.295"/>
								<rect x="635.609" y="170.453" style="fill:#474047;" width="16.627" height="4.295"/>
								<rect x="652.236" y="170.453" style="fill:#787088;" width="20.879" height="4.295"/>
							</g>
						</g>
						<g>
							<g>
								<polygon style="fill:#FBF8E7;" points="719.637,144.43 716.845,148.667 716.845,175 722.428,175 722.428,148.667 								
									"/>
								<polygon style="fill:#FBF8E7;" points="730.292,144.43 727.498,148.667 727.498,175 733.073,175 733.073,148.667 								
									"/>
								<polygon style="fill:#FBF8E7;" points="740.943,144.43 738.151,148.667 738.151,175 743.731,175 743.731,148.667 								
									"/>
								<polygon style="fill:#FBF8E7;" points="751.595,144.43 748.804,148.667 748.804,175 754.376,175 754.376,148.667 								
									"/>
								<polygon style="fill:#FBF8E7;" points="762.251,144.43 759.46,148.667 759.46,175 765.031,175 765.031,148.667 								"/>
							</g>
							<rect x="711.888" y="152.817" style="fill:#E4E1D1;" width="58.112" height="5.422"/>
							<rect x="711.888" y="165.154" style="fill:#E4E1D1;" width="58.112" height="5.419"/>
						</g>
					</g>
				</g>
				<circle style="fill:#EC5946;" cx="681.675" cy="96.813" r="8.923"/>
				<circle style="fill:#A0BEC9;" cx="681.673" cy="96.813" r="7.6"/>
				<rect x="673.792" y="96.15" style="fill:#EC5946;" width="15.763" height="1.325"/>
				<rect x="681.012" y="88.929" style="fill:#EC5946;" width="1.325" height="15.766"/>
				<polygon style="fill:#DBBF95;" points="640.114,116.308 681.675,74.914 723.235,116.308 723.235,111.654 681.441,70.203 
					640.114,111.654 				"/>
				<rect x="656.173" y="129.482" style="opacity:0.5;fill:#EC5947;" width="13.155" height="16.321"/>
				<rect x="656.173" y="152.018" style="opacity:0.5;fill:#EC5947;" width="13.155" height="16.321"/>
				<circle style="fill:#FAC845;" cx="668.634" cy="148.945" r="1.57"/>
				<rect x="716.845" y="158.239" style="fill:#D1CCB8;" width="5.583" height="1.475"/>
				<rect x="727.496" y="158.239" style="fill:#D1CCB8;" width="5.583" height="1.475"/>
				<rect x="738.108" y="158.239" style="fill:#D1CCB8;" width="5.583" height="1.475"/>
				<rect x="748.759" y="158.239" style="fill:#D1CCB8;" width="5.583" height="1.475"/>
				<rect x="759.454" y="158.239" style="fill:#D1CCB8;" width="5.582" height="1.475"/>
				<rect x="716.803" y="170.453" style="fill:#D1CCB8;" width="5.583" height="1.475"/>
				<rect x="727.453" y="170.453" style="fill:#D1CCB8;" width="5.583" height="1.475"/>
				<rect x="738.065" y="170.453" style="fill:#D1CCB8;" width="5.583" height="1.475"/>
				<rect x="748.716" y="170.453" style="fill:#D1CCB8;" width="5.583" height="1.475"/>
				<rect x="759.412" y="170.453" style="fill:#D1CCB8;" width="5.583" height="1.475"/>
				<path style="fill:#FBF8E7;" d="M720.101,155.351c0,0.279-0.228,0.504-0.507,0.504c-0.281,0-0.507-0.225-0.507-0.504
					c0-0.282,0.225-0.51,0.507-0.51C719.873,154.842,720.101,155.07,720.101,155.351z"/>
				<path style="fill:#FBF8E7;" d="M730.794,155.351c0,0.279-0.228,0.504-0.507,0.504c-0.279,0-0.507-0.225-0.507-0.504
					c0-0.282,0.228-0.51,0.507-0.51C730.566,154.842,730.794,155.07,730.794,155.351z"/>
				<path style="fill:#FBF8E7;" d="M741.449,155.351c0,0.279-0.228,0.504-0.507,0.504c-0.279,0-0.507-0.225-0.507-0.504
					c0-0.282,0.228-0.51,0.507-0.51C741.221,154.842,741.449,155.07,741.449,155.351z"/>
				<path style="fill:#FBF8E7;" d="M752.097,155.351c0,0.279-0.228,0.504-0.507,0.504c-0.279,0-0.507-0.225-0.507-0.504
					c0-0.282,0.228-0.51,0.507-0.51C751.869,154.842,752.097,155.07,752.097,155.351z"/>
				<path style="fill:#FBF8E7;" d="M762.753,155.351c0,0.279-0.228,0.504-0.507,0.504c-0.279,0-0.507-0.225-0.507-0.504
					c0-0.282,0.228-0.51,0.507-0.51C762.524,154.842,762.753,155.07,762.753,155.351z"/>
				<path style="fill:#FBF8E7;" d="M720.125,167.868c0,0.279-0.228,0.504-0.507,0.504c-0.281,0-0.507-0.225-0.507-0.504
					c0-0.281,0.225-0.509,0.507-0.509C719.897,167.358,720.125,167.586,720.125,167.868z"/>
				<path style="fill:#FBF8E7;" d="M730.818,167.868c0,0.279-0.228,0.504-0.507,0.504c-0.279,0-0.507-0.225-0.507-0.504
					c0-0.281,0.228-0.509,0.507-0.509C730.59,167.358,730.818,167.586,730.818,167.868z"/>
				<path style="fill:#FBF8E7;" d="M741.474,167.868c0,0.279-0.228,0.504-0.507,0.504c-0.279,0-0.507-0.225-0.507-0.504
					c0-0.281,0.228-0.509,0.507-0.509C741.245,167.358,741.474,167.586,741.474,167.868z"/>
				<path style="fill:#FBF8E7;" d="M752.121,167.868c0,0.279-0.228,0.504-0.507,0.504c-0.279,0-0.507-0.225-0.507-0.504
					c0-0.281,0.228-0.509,0.507-0.509C751.893,167.358,752.121,167.586,752.121,167.868z"/>
				<path style="fill:#FBF8E7;" d="M762.776,167.868c0,0.279-0.228,0.504-0.507,0.504c-0.279,0-0.507-0.225-0.507-0.504
					c0-0.281,0.228-0.509,0.507-0.509C762.549,167.358,762.776,167.586,762.776,167.868z"/>
				<path style="fill:#6B8729;" d="M760.476,126.589c0.177-0.437,0.276-0.909,0.276-1.408c0-2.065-1.673-3.74-3.74-3.74
					c-2.064,0-3.738,1.676-3.738,3.74c0,0.287,0.038,0.56,0.099,0.828c-0.037-0.198-0.059-0.399-0.059-0.606
					c0-1.821,1.475-3.295,3.295-3.295c1.818,0,3.293,1.475,3.293,3.295c0,0.437-0.089,0.855-0.244,1.242
					c1.445,0.346,2.526,1.641,2.526,3.194c0,1.82-1.475,3.295-3.295,3.295c-0.869,0-1.649-0.341-2.239-0.893
					c-0.59,0.552-1.376,0.893-2.242,0.893c-1.821,0-3.295-1.475-3.295-3.295c0-1.526,1.043-2.797,2.454-3.172
					c-0.005-0.016-0.008-0.035-0.016-0.051c-1.593,0.429-2.775,1.872-2.775,3.598c0,2.067,1.676,3.74,3.74,3.74
					c0.984,0,1.874-0.386,2.544-1.011c0.668,0.625,1.555,1.011,2.542,1.011c2.064,0,3.74-1.673,3.74-3.74
					C763.342,128.452,762.114,126.983,760.476,126.589z"/>
			</g>
		</g>
		<circle style="fill:none;stroke:#666666;stroke-width:2;stroke-miterlimit:10;" cx="700" cy="100" r="75"/>
	</g>
	<g>
		<g>
			<defs>
				<circle id="SVGID_5_" cx="500" cy="100.5" r="75"/>
			</defs>
			<clipPath id="SVGID_6_">
				<use xlink:href="#SVGID_5_"  style="overflow:visible;"/>
			</clipPath>
			<g style="clip-path:url(#SVGID_6_);">
				<rect x="417.872" y="20.5" style="fill:none;stroke:#000000;stroke-miterlimit:10;" width="164.246" height="160"/>
				<g>
					<path style="fill:#A97950;" d="M531.389,109.38l-0.041-0.196l0.001,0c-1.606-7.798-3.823-18.615-4.446-23.038
						c-0.27,0.028-0.583,0.015-0.792,0.015c-0.55,0-0.77-0.047-1.226-0.206l-0.17-0.077c-4.319-4.102-10.125-6.872-15.193-9.203
						c-0.398-0.058-0.81-0.068-1.222-0.045c-1.649-0.06-3.415,0.514-4.482,0.941c-0.452,0.132-0.901,0.271-1.347,0.412
						c0.003,0.001,0.006,0.003,0.009,0.004c-0.262,0.078-0.574,0.176-0.877,0.271c-0.407,0.13-0.812,0.259-1.213,0.383
						c-0.452,0.14-0.899,0.278-1.343,0.414c-1.812,0.591-3.369,1.16-5.331,1.579c-1.687,0.584-2.675,0.932-3.595,2.236
						c-1.211,2.153-2.729,3.829-4.198,5.449c-0.549,0.606-1.088,1.2-1.601,1.807c-0.66,0.871-1.267,1.789-1.784,2.831l-0.027,0.076
						c-0.202,0.907,0.19,1.81,1.105,2.544c0.38,0.305,0.843,0.571,1.371,0.792c2.466,0.581,6.099,0.262,9.478-1.703
						c0.626-0.364,1.687-1.493,2.115-2.081c0.43-0.587,0.82-1.209,1.203-1.841c0.005-0.008,0.009-0.016,0.014-0.024
						c0,0,0.056-0.161,0.104-0.175c0.34-0.569,1.33-2.562,1.681-3.132c-0.174,0.535-1.269,3.201-1.478,3.724
						c1.039-0.123,1.138-0.24,1.968-0.468c0.906-0.25,1.035-0.3,1.53-0.437c0.562-0.156,0.701-0.278,1.89-0.579
						c0,0,0.705-0.349,1.114-0.593c0.056-0.038,0.11-0.074,0.161-0.101c0.412-0.28,1.321-0.928,1.723-1.219
						c0.805-0.58,1.491-1.333,1.904-2.258c-0.197,0.992-0.814,1.905-1.618,2.589c-0.356,0.307-2.31,1.729-2.839,2.09
						c0.517,1.018,2.128,3.516,2.94,4.76l0.05-0.017c0.16,0.296,0.334,0.583,0.517,0.865c0.621,0.796,2.4,2.365,6.346,5.376
						c0,0,10.125,6.796,11.49,7.512c1.114,0.585,2.202,1.224,3.183,1.742c0.007,0.004,0.016,0.01,0.023,0.014
						c0.036-0.007,0.074-0.017,0.114-0.028c-0.005-0.014-0.011-0.028-0.015-0.04c0.075-0.01,0.217-0.044,0.382-0.088
						c0.118-0.05,0.248-0.111,0.393-0.186c0.08-0.015,1.568-0.222,1.871-0.29c0.079-0.007,0.158-0.012,0.237-0.014
						C531.443,109.638,531.416,109.51,531.389,109.38z"/>
					<path style="fill:#F7F7F7;" d="M538.93,105.887c-0.616-2.582-1.277-5.2-1.916-7.731c-1.165-4.618-2.368-9.428-3.351-14.18
						l-0.145-0.692c-1.87,0.449-4.906,1.21-6.477,1.584l-0.297,0.057l0.042,0.304c0.028,0.263,0.068,0.571,0.116,0.917
						c0.004,0,0.007-0.001,0.011-0.001c0.625,4.419,2.836,15.257,4.438,23.039c-0.001,0-0.002,0-0.003,0
						c0.013,0.065,0.027,0.131,0.04,0.196l0.081,0.386c0,0-0.001,0-0.002,0c0.029,0.138,0.057,0.275,0.085,0.411
						c0.203,0.985,0.395,1.917,0.572,2.779l0.035,0.157l0.332-0.064c1.703-0.324,3.269-0.681,4.651-0.996
						c1.183-0.269,2.088-0.487,3.131-0.686c-0.31-1.243-0.6-2.435-0.845-3.451C539.226,107.099,539.053,106.4,538.93,105.887z"/>
					<path style="fill:#F7F7F7;" d="M549.574,109.338c-0.003-0.03-0.006-0.06-0.01-0.09c-0.007-0.061-0.017-0.121-0.028-0.181
						c-0.006-0.032-0.011-0.064-0.018-0.096c-0.017-0.078-0.037-0.156-0.06-0.232c-0.001-0.003-0.001-0.005-0.002-0.008
						c-0.01-0.034-0.024-0.067-0.035-0.101c-0.018-0.051-0.035-0.102-0.056-0.151c-0.016-0.039-0.033-0.077-0.051-0.114
						c-0.02-0.043-0.04-0.086-0.062-0.128c-0.019-0.038-0.04-0.075-0.06-0.112c-0.024-0.041-0.049-0.082-0.074-0.122
						c-0.022-0.034-0.043-0.069-0.066-0.102c-0.032-0.046-0.066-0.09-0.1-0.133c-0.028-0.035-0.055-0.07-0.084-0.104
						c-0.046-0.054-0.093-0.106-0.142-0.157c-0.026-0.027-0.054-0.052-0.081-0.077c-0.037-0.035-0.074-0.07-0.113-0.103
						c-0.03-0.025-0.061-0.05-0.091-0.074c-0.04-0.031-0.08-0.061-0.121-0.091c-0.031-0.022-0.062-0.044-0.094-0.065
						c-0.047-0.031-0.095-0.059-0.144-0.087c-0.028-0.016-0.056-0.034-0.084-0.049c-0.075-0.04-0.153-0.078-0.232-0.112
						c-0.026-0.011-0.054-0.02-0.081-0.031c-0.057-0.023-0.114-0.044-0.172-0.063c-0.034-0.011-0.07-0.021-0.105-0.031
						c-0.053-0.015-0.106-0.029-0.161-0.041c-0.037-0.008-0.073-0.016-0.11-0.023c-0.057-0.011-0.114-0.019-0.172-0.026
						c-0.035-0.004-0.069-0.01-0.104-0.013c-0.08-0.007-0.161-0.011-0.243-0.012c-0.012,0-0.023-0.002-0.035-0.002
						c-1.657,0-3.005,1.348-3.006,3.005c0,1.657,1.349,3.005,3.006,3.005c0.099,0,0.197-0.005,0.294-0.015
						c0.006-0.001,0.013-0.001,0.019-0.002c0.091-0.009,0.181-0.024,0.27-0.041c0.013-0.003,0.026-0.005,0.038-0.008
						c0.084-0.018,0.167-0.039,0.248-0.064c0.017-0.005,0.033-0.01,0.05-0.015c0.078-0.025,0.154-0.053,0.229-0.084
						c0.019-0.008,0.038-0.016,0.056-0.024c0.069-0.03,0.137-0.063,0.203-0.098c0.023-0.012,0.045-0.025,0.067-0.038
						c0.053-0.03,0.104-0.061,0.155-0.094c0.032-0.021,0.063-0.041,0.094-0.063c0.046-0.032,0.091-0.066,0.135-0.101
						c0.028-0.022,0.056-0.045,0.083-0.068c0.047-0.04,0.093-0.082,0.137-0.125c0.028-0.027,0.057-0.055,0.084-0.084
						c0.041-0.043,0.082-0.087,0.121-0.133c0.045-0.053,0.087-0.108,0.129-0.164c0.013-0.017,0.027-0.034,0.039-0.052
						c0.036-0.051,0.07-0.104,0.104-0.158c0.015-0.025,0.031-0.05,0.046-0.075c0.029-0.05,0.056-0.101,0.082-0.153
						c0.016-0.032,0.032-0.064,0.047-0.096c0.023-0.049,0.044-0.098,0.063-0.148c0.016-0.039,0.03-0.079,0.044-0.119
						c0.016-0.046,0.032-0.092,0.046-0.139c0.014-0.047,0.025-0.095,0.037-0.144c0.01-0.042,0.021-0.084,0.029-0.127
						c0.011-0.059,0.02-0.119,0.027-0.179c0.005-0.034,0.011-0.068,0.014-0.103c0.009-0.096,0.015-0.193,0.015-0.292v-0.001
						C549.588,109.518,549.582,109.427,549.574,109.338z"/>
					<path style="fill:#F7F7F7;" d="M450.785,110.175c0.004,0.02,0.008,0.04,0.012,0.061c0.039,0.183,0.094,0.36,0.165,0.529
						c0.005,0.011,0.01,0.022,0.015,0.033c0.032,0.075,0.068,0.148,0.106,0.219c0.007,0.012,0.013,0.025,0.02,0.037
						c0.512,0.928,1.5,1.559,2.633,1.559c1.657,0,3.005-1.347,3.005-3.004c-0.001-1.656-1.349-3.004-3.005-3.004
						c-0.579,0-1.121,0.165-1.58,0.45l-0.001,0c-0.075,0.047-0.148,0.097-0.218,0.15c-0.002,0.002-0.005,0.003-0.007,0.005
						c-0.069,0.052-0.136,0.107-0.2,0.166c-0.003,0.003-0.006,0.005-0.009,0.008c-0.064,0.058-0.125,0.118-0.184,0.182
						c-0.003,0.003-0.005,0.006-0.008,0.008c-0.059,0.064-0.115,0.13-0.168,0.198c-0.001,0.002-0.003,0.004-0.004,0.006
						c-0.328,0.425-0.545,0.941-0.607,1.502c-0.003,0.025-0.004,0.05-0.006,0.075c-0.007,0.082-0.012,0.163-0.013,0.247
						c0,0.002,0,0.005,0,0.007c0,0.095,0.006,0.189,0.014,0.282c0.002,0.023,0.005,0.044,0.008,0.067
						C450.76,110.03,450.771,110.103,450.785,110.175z"/>
					<path style="fill:#F7F7F7;" d="M470.058,103.59c1.473-7.206,2.988-14.833,3.379-17.992c0.003,0.001,0.006,0.001,0.008,0.002
						l0.074-0.656c-1.571-0.374-4.919-1.173-6.789-1.622l-0.137,0.665c-0.983,4.752-2.181,9.551-3.346,14.169
						c-0.639,2.532-1.3,5.15-1.916,7.731c-0.248,1.037-0.678,2.839-1.172,4.84c-0.005-0.001-0.009-0.002-0.014-0.003
						c-0.053,0.214-0.106,0.43-0.161,0.647c1.045,0.199,1.948,0.411,3.133,0.68c1.382,0.314,3.287,0.733,4.99,1.057l0.087-0.463
						c0.195-0.95,0.407-1.979,0.632-3.068c0.029-0.142,0.059-0.285,0.088-0.428l-0.001,0
						C469.278,107.387,469.667,105.503,470.058,103.59z"/>
					<path style="fill:#575A5B;" d="M417.883,70.595v0.693c0.068,0.019,0.133,0.038,0.201,0.057
						c-0.067-0.019-0.133-0.037-0.201-0.055v38.468v0.083v0.645c7.713,2.804,31.566,7.227,39.271,9.763l0.311,0.097l0.105-0.296
						c0.587-1.541,1.571-5.294,2.414-8.678c0.054-0.218,0.108-0.433,0.161-0.647c0.5-2.022,0.936-3.848,1.186-4.895
						c0.616-2.582,1.277-5.2,1.916-7.731c1.282-5.079,2.605-10.327,3.635-15.551l0.142-0.67
						C458.95,79.427,421.618,71.652,417.883,70.595z M456.74,109.609c-0.001,1.656-1.349,3.004-3.005,3.004
						c-1.051,0-1.976-0.543-2.514-1.363c-0.041-0.064-0.082-0.129-0.119-0.196c-0.007-0.012-0.013-0.025-0.02-0.037
						c-0.038-0.071-0.073-0.144-0.106-0.219c-0.005-0.011-0.01-0.022-0.015-0.033c-0.071-0.169-0.126-0.346-0.165-0.529
						c-0.004-0.02-0.008-0.04-0.012-0.061c-0.014-0.072-0.025-0.145-0.033-0.219c-0.003-0.022-0.006-0.044-0.008-0.067
						c-0.009-0.093-0.014-0.186-0.014-0.282c0,0,0-0.001,0-0.001c0-0.002,0-0.004,0-0.006c0-0.083,0.005-0.165,0.013-0.247
						c0.049-0.591,0.271-1.133,0.614-1.577c0.001-0.002,0.003-0.004,0.004-0.006c0.053-0.069,0.109-0.135,0.168-0.198
						c0.003-0.003,0.005-0.006,0.008-0.008c0.059-0.063,0.12-0.124,0.184-0.182c0.003-0.002,0.006-0.005,0.009-0.008
						c0.064-0.058,0.131-0.113,0.2-0.166c0.002-0.002,0.005-0.003,0.007-0.005c0.071-0.053,0.143-0.103,0.218-0.15l0.001,0
						c0.46-0.286,1-0.454,1.58-0.454c1.657,0,3.006,1.349,3.006,3.006C456.74,109.608,456.74,109.608,456.74,109.609z"/>
					<path style="fill:#0E7689;" d="M533.531,81.762l-0.292,0.076l0.058,0.309c1.041,5.357,2.401,10.743,3.716,15.952
						c0.639,2.532,1.3,5.15,1.916,7.731c0.125,0.524,0.297,1.245,0.5,2.086c0.245,1.015,0.535,2.207,0.845,3.451
						c0.843,3.386,1.828,7.142,2.416,8.684l0.117,0.296l0.292-0.096c2.618-0.795,34.029-7.036,39.028-8.472v-0.633v-0.062V71.821
						v-0.684C577.957,72.318,540.824,79.605,533.531,81.762z M549.588,109.61L549.588,109.61c0,0.099-0.006,0.196-0.015,0.292
						c-0.003,0.035-0.01,0.069-0.014,0.103c-0.008,0.06-0.016,0.12-0.027,0.179c-0.008,0.043-0.019,0.085-0.029,0.127
						c-0.012,0.048-0.023,0.096-0.037,0.144c-0.014,0.047-0.03,0.093-0.046,0.139c-0.014,0.04-0.028,0.08-0.044,0.119
						c-0.02,0.05-0.041,0.099-0.063,0.148c-0.015,0.032-0.03,0.065-0.047,0.096c-0.026,0.052-0.053,0.103-0.082,0.153
						c-0.015,0.025-0.03,0.05-0.046,0.075c-0.033,0.054-0.067,0.107-0.104,0.158c-0.013,0.018-0.026,0.035-0.039,0.052
						c-0.041,0.056-0.084,0.111-0.129,0.164c-0.039,0.046-0.079,0.09-0.121,0.133c-0.028,0.029-0.055,0.056-0.084,0.084
						c-0.045,0.043-0.09,0.085-0.137,0.125c-0.027,0.023-0.055,0.045-0.083,0.068c-0.044,0.035-0.089,0.069-0.135,0.101
						c-0.031,0.022-0.062,0.043-0.094,0.063c-0.051,0.033-0.102,0.065-0.155,0.094c-0.022,0.013-0.044,0.026-0.067,0.038
						c-0.066,0.035-0.134,0.067-0.203,0.098c-0.018,0.008-0.037,0.017-0.056,0.024c-0.075,0.031-0.151,0.059-0.229,0.084
						c-0.017,0.005-0.033,0.01-0.05,0.015c-0.081,0.025-0.164,0.046-0.248,0.064c-0.013,0.003-0.026,0.005-0.038,0.008
						c-0.089,0.017-0.179,0.032-0.27,0.041c-0.006,0.001-0.013,0.001-0.019,0.002c-0.097,0.009-0.195,0.015-0.294,0.015
						c-1.657,0-3.005-1.348-3.006-3.005v0c0-1.657,1.349-3.006,3.006-3.006c0.012,0,0.023,0.002,0.035,0.002
						c0.082,0.001,0.163,0.005,0.243,0.012c0.035,0.003,0.069,0.008,0.104,0.013c0.058,0.007,0.115,0.016,0.172,0.026
						c0.037,0.007,0.074,0.015,0.11,0.023c0.054,0.012,0.108,0.026,0.161,0.041c0.035,0.01,0.07,0.02,0.105,0.031
						c0.058,0.019,0.115,0.041,0.172,0.063c0.027,0.011,0.054,0.02,0.081,0.031c0.079,0.034,0.157,0.071,0.232,0.112
						c0.029,0.015,0.056,0.033,0.084,0.049c0.048,0.028,0.097,0.056,0.144,0.087c0.032,0.021,0.063,0.043,0.094,0.065
						c0.041,0.029,0.082,0.06,0.121,0.091c0.031,0.024,0.061,0.049,0.091,0.074c0.039,0.033,0.076,0.068,0.113,0.103
						c0.027,0.026,0.055,0.051,0.081,0.077c0.049,0.051,0.096,0.103,0.142,0.157c0.029,0.034,0.056,0.069,0.084,0.104
						c0.034,0.044,0.068,0.088,0.1,0.133c0.023,0.034,0.044,0.068,0.066,0.102c0.026,0.04,0.051,0.081,0.074,0.122
						c0.021,0.037,0.041,0.074,0.06,0.112c0.022,0.042,0.042,0.085,0.062,0.128c0.017,0.038,0.035,0.076,0.051,0.114
						c0.02,0.049,0.038,0.1,0.056,0.151c0.012,0.036,0.026,0.072,0.037,0.109c0.023,0.076,0.043,0.154,0.06,0.232
						c0.007,0.032,0.012,0.064,0.018,0.096c0.011,0.06,0.02,0.12,0.028,0.181c0.004,0.03,0.007,0.06,0.01,0.09
						C549.582,109.427,549.588,109.518,549.588,109.61C549.588,109.609,549.588,109.61,549.588,109.61z"/>
					<path style="fill:#EFC295;" d="M528.665,110.561c-0.065-0.067-0.126-0.117-0.178-0.148c-0.007-0.005-0.016-0.01-0.023-0.014
						c-0.981-0.518-2.069-1.157-3.183-1.742c-1.365-0.717-11.49-7.512-11.49-7.512c-3.946-3.011-5.725-4.58-6.346-5.376
						c-0.032-0.041-0.062-0.081-0.089-0.119c0,0-0.189-0.286-0.479-0.73c-0.812-1.244-2.423-3.742-2.94-4.76
						c0.529-0.362,2.484-1.784,2.839-2.09c0.804-0.683,1.421-1.597,1.618-2.589c-0.413,0.925-1.099,1.678-1.904,2.258
						c-0.402,0.291-1.311,0.939-1.723,1.219c-0.045,0.03-0.099,0.064-0.161,0.101c-0.409,0.244-1.114,0.593-1.114,0.593
						c-1.189,0.301-1.328,0.423-1.89,0.579c-0.495,0.138-0.625,0.187-1.53,0.437c-0.83,0.229-0.929,0.346-1.968,0.468
						c0.209-0.523,1.304-3.19,1.478-3.724c-0.351,0.57-1.341,2.563-1.681,3.132c-0.048,0.014-0.104,0.175-0.104,0.175
						c-0.005,0.008-0.009,0.016-0.014,0.024c-0.382,0.632-0.772,1.254-1.203,1.841c-0.428,0.588-1.489,1.717-2.115,2.081
						c-3.38,1.966-7.012,2.284-9.478,1.703c-0.528-0.22-0.991-0.487-1.371-0.792c-0.915-0.734-1.307-1.638-1.105-2.544l0.027-0.076
						c0.517-1.042,1.124-1.96,1.784-2.831c0.513-0.607,1.051-1.201,1.601-1.807c1.469-1.62,2.987-3.296,4.198-5.449
						c0.92-1.304,1.908-1.652,3.595-2.236c1.963-0.419,3.519-0.988,5.331-1.579c0.507-0.166,1.034-0.333,1.596-0.499
						c0.234-0.069,0.591-0.182,0.96-0.298c0.303-0.095,0.615-0.193,0.877-0.271c-0.003-0.002-0.006-0.003-0.009-0.004
						c-0.351-0.164-0.4-0.184-0.62-0.288c-2.374-0.966-6.819-2.036-8.306-1.943c-5.58,2.085-9.678,4.126-17.78,10.023l-0.11,0.052
						c-0.371,0.1-0.698,0.161-1.093,0.161c-0.32,0-0.685-0.04-1.155-0.131c-0.429,3.273-1.908,10.699-3.348,17.733
						c-0.391,1.914-0.78,3.798-1.143,5.561h0.001c0.007-0.034,0.012-0.055,0.012-0.055c0.154,0.001,0.825,0.107,1.655,0.265
						c0.137,0.026,4.87,5.732,10.246,10.893c4.15,3.983,8.505,7.87,12.536,7.156c0.647,0.236,1.3,0.471,1.927,0.696h0
						c0.008-0.014,0.949,0.291,1.403,0.446l0.829,0.298c1.857,0.67,3.003,1.029,3.29,1.098c1.675,0.405,3.977-1.046,5.203-2.178
						c-0.327-0.169-0.651-0.342-0.971-0.519c-1.781-0.998-3.489-2.095-5.206-3.171c-0.858-0.539-1.714-1.079-2.581-1.6
						c-0.868-0.518-1.744-1.025-2.665-1.453c0.965,0.32,1.891,0.755,2.795,1.221c0.904,0.467,1.788,0.969,2.664,1.483
						c1.75,1.028,3.474,2.096,5.255,3.041c0.89,0.471,1.795,0.912,2.723,1.259c0.232,0.086,0.465,0.166,0.7,0.235
						c0.234,0.068,0.475,0.132,0.695,0.163c0.453,0.062,0.925,0.014,1.384-0.106c0.919-0.244,1.78-0.75,2.53-1.364
						c0.374-0.31,0.721-0.655,1.019-1.029c0.26-0.331,0.495-0.691,0.627-1.057c-0.675-0.274-1.318-0.604-1.949-0.947
						c-1.989-1.101-3.857-2.366-5.744-3.594c-0.941-0.617-1.889-1.222-2.842-1.814c-0.954-0.591-1.906-1.182-2.909-1.701
						c1.08,0.341,2.101,0.852,3.087,1.4c0.985,0.554,1.941,1.155,2.897,1.752c1.911,1.193,3.802,2.42,5.777,3.464
						c0.494,0.259,0.995,0.502,1.501,0.723c0.507,0.219,1.023,0.412,1.545,0.54c0.492,0.13,1.009,0.09,1.523-0.037
						c0.512-0.129,1.011-0.343,1.483-0.604c0.942-0.529,1.795-1.238,2.482-2.072c0.634-0.775,1.135-1.69,1.257-2.645
						c-0.033-0.007-0.069-0.015-0.117-0.026l-0.273-0.093c-0.589-0.164-1.151-0.379-1.705-0.607
						c-0.681-0.281-1.34-0.603-1.993-0.933c-0.651-0.333-1.295-0.679-1.928-1.043c-0.632-0.366-1.256-0.744-1.873-1.131
						c-0.617-0.388-1.228-0.786-1.832-1.195c-0.601-0.41-1.194-0.843-1.769-1.279c-0.58-0.415-1.203-0.791-1.822-1.165
						c-0.621-0.374-1.926-1.1-2.564-1.448c0.676,0.269,2.011,0.944,2.665,1.264c0.652,0.326,1.296,0.663,1.921,1.058
						c1.222,0.789,2.438,1.563,3.688,2.292c0.625,0.364,1.255,0.717,1.891,1.059c0.635,0.343,1.273,0.68,1.92,0.997
						c0.646,0.318,1.301,0.615,1.96,0.895c0.659,0.275,1.331,0.525,2.003,0.695l-0.003,0.014c1.686,0.129,3.402-0.81,4.505-2.492
						C529.422,113.333,528.931,111.333,528.665,110.561z"/>
					<path style="fill:#A97C50;" d="M497.709,121.393c-0.674-1.055-1.631-1.716-2.698-1.863c-0.859-0.118-1.563,0.429-2.198,1.105
						c-0.464,0.455-0.994,1.024-1.57,1.619c-0.004-0.003-1.011,1.274-1.3,1.448c0.239-0.334,0.337-0.457,0.723-1.017
						c0.261-0.366,1.921-2.638,2.54-3.559c1.924-2.866,1.874-3.911,1.816-4.527c-0.066-0.697-0.328-1.503-0.513-1.871
						c-0.725-1.439-1.474-2.001-2.774-2.35c-1.031-0.277-1.794,0.226-2.712,1.065c0,0-0.44,0.422-0.714,0.74
						c-0.052,0.043-1.128,1.255-1.505,1.681c-1.026,1.133-3.159,3.65-3.674,4.143c-0.192,0.196-0.488,0.5-0.703,0.688
						c0.13-0.217,0.341-0.516,0.477-0.712c0.346-0.529,2.193-2.801,3.014-3.88c0.311-0.398,1.192-1.534,1.221-1.587
						c0.233-0.291,0.53-0.743,0.53-0.743c0.582-0.938,0.897-1.685,0.487-2.54c-0.517-1.077-1.129-1.639-2.503-2.037
						c-0.352-0.102-1.097-0.199-1.715-0.143c-0.547,0.05-1.467,0.176-3.653,2.322c-0.703,0.69-2.414,2.509-2.691,2.796
						c-0.426,0.428-0.517,0.534-0.77,0.797c0.105-0.281,1.055-1.367,1.052-1.37c0.425-0.599,0.835-1.154,1.156-1.633
						c0.487-0.664,0.849-1.368,0.606-2.098c-0.302-0.907-1.035-1.633-2.065-2.05c-0.798-0.322-1.901-0.176-2.313-0.009
						c-0.735,0.297-1.934,1.167-2.735,1.777c-0.334,0.254-1.091,0.919-1.321,1.17c-0.338,0.368-0.528,0.632-0.678,1.038
						c-0.217,0.776-0.117,1.754,0.265,2.613c0.108,0.203,0.218,0.377,0.337,0.532c0.142,0.185,0.306,0.435,0.489,0.6
						c0.371,0.449,0.665,0.73,1.081,1.037l0.096,0.071l0.047,0.031c0.838,0.509,1.516,0.511,1.704,0.499
						c0.02-0.001,0.036-0.003,0.046-0.004c0.142-0.012,0.295-0.065,0.465-0.161c-0.142,0.492-0.248,1.092-0.176,1.503
						c0.122,0.693,0.405,1.227,0.592,1.58c0.025,0.048,0.049,0.093,0.071,0.136l0.022,0.042c0.244,0.463,0.69,1.051,1.088,1.433
						c0.088,0.084,0.185,0.186,0.293,0.299c0.332,0.349,0.709,0.745,1.094,0.93c0.469,0.23,0.752,0.36,1.111,0.337
						c0.143-0.009,0.319-0.038,0.522-0.085c0.145-0.034,0.248-0.061,0.379-0.095c0.086-0.023,0.179-0.056,0.275-0.096l-0.143,0.165
						c0.089-0.043,0.177-0.09,0.266-0.142c-0.088,0.289-0.154,0.563-0.17,0.792c-0.012,0.151-0.02,0.272-0.027,0.439
						c-0.01,0.235-0.005,0.436,0.014,0.596c0.049,0.402,0.252,0.689,0.604,1.161c0.284,0.388,0.801,0.723,1.256,1.019
						c0.148,0.096,0.281,0.183,0.392,0.263c0.506,0.361,1.25,0.734,1.813,0.908l0.051,0.015c0.052,0.016,0.106,0.033,0.165,0.051
						c0.43,0.134,1.08,0.337,1.873,0.329c0.47-0.005,1.113-0.247,1.628-0.506c-0.071,0.209-0.099,0.389-0.083,0.549
						c0.001,0.012,0.002,0.029,0.005,0.052c0.026,0.21,0.168,0.961,0.905,1.784l0.045,0.045l0.099,0.092
						c0.427,0.397,0.798,0.664,1.373,0.982c0.22,0.168,0.531,0.298,0.765,0.417c0.196,0.1,0.411,0.186,0.659,0.263
						c1.03,0.246,2.135,0.155,2.949-0.247c0.419-0.251,0.671-0.515,1.009-0.967c0.229-0.306,0.81-1.283,1.022-1.704
						c0.509-1.014,1.225-2.522,1.402-3.397C498.297,123.462,498.231,122.21,497.709,121.393z"/>
				</g>
			</g>
		</g>
		<circle style="fill:none;stroke:#666666;stroke-width:2;stroke-miterlimit:10;" cx="500" cy="99.5" r="75"/>
	</g>
	<g>
		<g>
			<defs>
				<circle id="SVGID_7_" cx="100" cy="100" r="75"/>
			</defs>
			<clipPath id="SVGID_8_">
				<use xlink:href="#SVGID_7_"  style="overflow:visible;"/>
			</clipPath>
			<g style="clip-path:url(#SVGID_8_);">
				<path style="fill:#0D2038;" d="M135.015,133.973l-6.112-6.111c-1.075,1.075-2.192,2.084-3.348,3.025l7.012,7.011
					c0.499-1.441,1.305-2.784,2.445-3.924C135.014,133.974,135.014,133.974,135.015,133.973z"/>
				<path style="fill:#0D2038;" d="M128.904,127.862l6.112,6.111c1.141-1.14,2.485-1.95,3.926-2.448l-7.012-7.01
					C130.988,125.67,129.98,126.786,128.904,127.862z"/>
				<path style="fill:#0D2038;" d="M71.619,70.577l-5.097-5.097c-17.226,17.226-17.226,45.156,0,62.381
					c16.151,16.151,41.71,17.159,59.034,3.026c1.155-0.942,2.273-1.95,3.348-3.025l-3.81-3.81l-1.287-1.287
					c-14.411,14.411-37.776,14.411-52.188,0C57.208,108.354,57.208,84.989,71.619,70.577z"/>
				<path style="fill:#0D2038;" d="M66.522,65.48l5.097,5.097c14.412-14.411,37.777-14.411,52.188,0
					c14.411,14.412,14.411,37.777,0,52.188l1.287,1.287l3.81,3.81c1.076-1.077,2.085-2.193,3.026-3.347
					c14.134-17.326,13.126-42.884-3.025-59.035C111.678,48.254,83.748,48.253,66.522,65.48z"/>
				<path style="opacity:0.1;fill:#FFFFFF;" d="M66.522,65.48l5.097,5.097c14.412-14.411,37.777-14.411,52.188,0
					c14.411,14.412,14.411,37.777,0,52.188l1.287,1.287l3.81,3.81c1.076-1.077,2.085-2.193,3.026-3.347
					c14.134-17.326,13.126-42.884-3.025-59.035C111.678,48.254,83.748,48.253,66.522,65.48z"/>
				<path style="fill:#D0D4D4;" d="M77.519,116.865c-11.153-11.153-11.155-29.235-0.001-40.389l-5.899-5.9
					c-14.411,14.412-14.411,37.777,0,52.188c14.412,14.411,37.777,14.411,52.188,0l-5.901-5.9
					C106.753,128.018,88.672,128.018,77.519,116.865z"/>
				<path style="fill:#D0D4D4;" d="M123.807,70.577c-14.411-14.411-37.776-14.411-52.188,0l5.899,5.9
					c11.153-11.153,29.237-11.153,40.389-0.001c11.153,11.153,11.152,29.236-0.001,40.389l5.901,5.9
					C138.218,108.354,138.218,84.989,123.807,70.577z"/>
				<path style="fill:#BCBFBF;" d="M123.807,70.577c-14.411-14.411-37.776-14.411-52.188,0l5.899,5.9
					c11.153-11.153,29.237-11.153,40.389-0.001c11.153,11.153,11.152,29.236-0.001,40.389l5.901,5.9
					C138.218,108.354,138.218,84.989,123.807,70.577z"/>
				<path style="fill:#FFFFFF;" d="M117.907,76.476c-11.152-11.152-29.236-11.152-40.389,0.001l40.388,40.388
					C129.06,105.712,129.061,87.629,117.907,76.476z"/>
				<path style="fill:#DEDEDE;" d="M117.907,76.476c-11.152-11.152-29.236-11.152-40.389,0.001l0.133,0.132
					c11.211-8.942,27.593-8.228,37.972,2.151c10.381,10.38,11.093,26.761,2.151,37.973l0.132,0.132
					C129.06,105.712,129.061,87.629,117.907,76.476z"/>
				<path style="fill:#ECF0F0;" d="M77.519,116.865c11.152,11.152,29.233,11.153,40.387,0L77.518,76.477
					C66.365,87.63,66.366,105.713,77.519,116.865z"/>
				<path style="fill:#FFFFFF;" d="M79.803,114.581c-10.381-10.38-11.095-26.76-2.152-37.972l-0.133-0.132
					c-11.153,11.153-11.152,29.236,0.001,40.389c11.152,11.152,29.233,11.153,40.387,0l-0.132-0.132
					C106.562,125.675,90.183,124.961,79.803,114.581z"/>
				<g>
					<path style="fill:#0D2038;" d="M154.305,141.572l-2.659,2.659l-3.186,3.186l16.018,16.018l17.79,17.79
						c4.149-4.153,4.956-12.154,0.524-16.585C182.035,163.882,181.878,165.282,154.305,141.572z"/>
					<path style="fill:#0D2038;" d="M149.543,137.457c-2.329-2.015-4.825-4.186-7.502-6.521c-1.06,0.044-2.103,0.245-3.1,0.59
						c-1.441,0.498-2.785,1.308-3.926,2.448l9.006,9.006l3.186-3.187L149.543,137.457z"/>
				</g>
				<g style="opacity:0.1;">
					<g>
						<path style="fill:#FFFFFF;" d="M154.305,141.572l-2.659,2.659l-3.186,3.186l16.018,16.018l17.79,17.79
							c4.149-4.153,4.956-12.154,0.524-16.585C182.035,163.882,181.878,165.282,154.305,141.572z"/>
						<path style="fill:#FFFFFF;" d="M149.543,137.457c-2.329-2.015-4.825-4.186-7.502-6.521c-1.06,0.044-2.103,0.245-3.1,0.59
							c-1.441,0.498-2.785,1.308-3.926,2.448l9.006,9.006l3.186-3.187L149.543,137.457z"/>
					</g>
					<g>
						<path style="opacity:0.1;fill:#FFFFFF;" d="M154.305,141.572l-2.659,2.659l-3.186,3.186l16.018,16.018l17.79,17.79
							c4.149-4.153,4.956-12.154,0.524-16.585C182.035,163.882,181.878,165.282,154.305,141.572z"/>
						<path style="opacity:0.1;fill:#FFFFFF;" d="M149.543,137.457c-2.329-2.015-4.825-4.186-7.502-6.521
							c-1.06,0.044-2.103,0.245-3.1,0.59c-1.441,0.498-2.785,1.308-3.926,2.448l9.006,9.006l3.186-3.187L149.543,137.457z"/>
					</g>
				</g>
				<g>
					<path style="fill:#0D2038;" d="M142.615,153.262c23.69,27.541,22.326,27.747,23.068,28.487
						c4.432,4.433,12.437,3.624,16.583-0.522c0-0.001,0-0.001,0.002-0.002l-17.79-17.79l-16.018-16.018l-3.186,3.186
						L142.615,153.262z"/>
					<path style="fill:#0D2038;" d="M135.013,133.974c-1.14,1.141-1.946,2.483-2.445,3.924c-0.343,0.997-0.545,2.039-0.59,3.098
						c2.339,2.674,4.507,5.175,6.527,7.499l2.33-2.331l3.187-3.185l-9.006-9.006C135.014,133.974,135.014,133.974,135.013,133.974z"
						/>
				</g>
				<path style="fill:#E64F30;" d="M140.834,146.165l-2.33,2.331c1.447,1.675,2.815,3.263,4.11,4.767l2.659-2.659l3.186-3.186
					l-4.438-4.438L140.834,146.165z"/>
				<path style="fill:#FF5835;" d="M149.543,137.457l-2.335,2.336l-3.186,3.187l4.438,4.438l3.186-3.186l2.659-2.659
					C152.802,140.276,151.214,138.909,149.543,137.457z"/>
			</g>
		</g>
		<circle style="fill:none;stroke:#666666;stroke-width:2;stroke-miterlimit:10;" cx="100" cy="100" r="75"/>
	</g>
</g>
</svg>
