<?xml version="1.0" encoding="iso-8859-1"?>
<!-- Generator: Adobe Illustrator 19.0.1, SVG Export Plug-In . SVG Version: 6.00 Build 0)  -->
<svg version="1.1" id="Layer_1" xmlns="http://www.w3.org/2000/svg" xmlns:xlink="http://www.w3.org/1999/xlink" x="0px" y="0px"
	 viewBox="0 0 201.564 116.492" style="enable-background:new 0 0 201.564 116.492;" xml:space="preserve">
<polygon style="fill:#FFFFFF;" points="39.037,58.079 39.037,47.124 102.137,0 166.345,48.23 166.345,58.681 102.69,11.456 "/>
<polygon style="fill:#FFFFFF;" points="174.564,13 160.564,13 160.564,15.066 174.564,25.105 "/>
<polygon style="fill:#FFFFFF;" points="139.093,1.274 137.417,0 123.363,10.515 131.191,16.394 133.367,14.814 137.987,11.456 
	139.62,12.696 201.564,58.681 201.564,56.147 201.564,48.23 "/>
<polygon style="fill:#FFFFFF;" points="173.385,40.73 173.385,91.606 184.194,91.606 184.194,48.462 "/>
<g>
	<path style="fill:#FFFFFF;" d="M93.612,91.242H82.875L70.43,71.285c-0.853,0-1.422,0.972-1.706,2.917L66.13,91.242h-8.899
		l2.3-14.046c0.985-6.323,3.677-9.609,8.077-9.852L57.231,52.892V52.31h10.704l11.822,17.698c0.546-0.292,0.952-1.264,1.215-2.92
		l2.494-14.778h8.933l-2.266,12.259c-1.117,5.718-3.657,8.93-7.618,9.634l11.098,16.674V91.242z"/>
	<rect x="97.283" y="52.309" style="fill:#FFFFFF;" width="9.194" height="22.332"/>
	<path style="fill:#FFFFFF;" d="M154.967,52.309L153.228,75.7c-0.504,6.518-2.288,10.797-5.354,12.843
		c-3.064,2.041-8.953,3.063-17.664,3.063c-4.662,0-10.059-0.316-16.188-0.949l-2.429-38.347h9.424l0.723,19.267
		c0.678,0.1,1.531,0.146,2.561,0.146c2.604,0,3.929-1.046,3.973-3.136l0.459-16.277h9.096l-0.886,16.677
		c-0.307,5.57-3.689,8.355-10.146,8.355c-2.605,0-4.171-0.072-4.695-0.219l0.262,7.004c3.348,0.317,6.107,0.475,8.275,0.475
		c4.925,0,8.175-0.377,9.751-1.131c2.19-0.998,3.395-3.259,3.613-6.785l1.609-24.375H154.967z"/>
</g>
<g>
	<path style="fill:#FFFFFF;" d="M3.114,111.422c-0.47,0.141-0.994,0.211-1.57,0.211c-0.576,0-1.091-0.093-1.544-0.278v-2.388
		c0.459,0.123,0.82,0.185,1.081,0.185c0.261,0,0.475-0.048,0.643-0.144c0.168-0.096,0.293-0.23,0.376-0.401
		c0.137-0.31,0.206-0.68,0.206-1.112v-6.877l-1.493,0.145v-2.378c2.106-0.296,4.204-0.443,6.29-0.443
		c1.544,0,2.701,0.196,3.469,0.587c0.391,0.199,0.712,0.428,0.963,0.685c0.25,0.258,0.444,0.578,0.582,0.963
		c0.137,0.385,0.23,0.773,0.278,1.168c0.048,0.396,0.072,0.863,0.072,1.405v8.679H9.307v-8.688c0-1.586-0.868-2.378-2.604-2.378
		c-0.385,0-0.803,0.01-1.256,0.03v7.104c0,1.593-0.395,2.711-1.184,3.356C3.967,111.09,3.584,111.281,3.114,111.422z"/>
	<path style="fill:#FFFFFF;" d="M18.839,111.426h-3.14v-13.28h3.14V111.426z"/>
	<path style="fill:#FFFFFF;" d="M22.35,102.058c0-1.229-0.25-2.536-0.751-3.922h3.006c0.103,0.268,0.206,0.579,0.309,0.937
		l0.278,1.102h0.196c0.027-0.062,0.068-0.143,0.124-0.242c0.055-0.1,0.194-0.278,0.417-0.535c0.223-0.258,0.472-0.484,0.746-0.68
		c0.275-0.195,0.65-0.374,1.127-0.535s1.012-0.242,1.606-0.242s1.134,0.113,1.622,0.34s0.88,0.525,1.179,0.896
		c0.299,0.371,0.544,0.82,0.736,1.349c0.336,0.927,0.504,2.056,0.504,3.388v7.515h-5.683v-2.398h2.471v-4.756
		c0-1.222-0.113-2.083-0.34-2.584c-0.103-0.227-0.233-0.439-0.391-0.639c-0.316-0.412-0.817-0.618-1.503-0.618
		c-0.315,0-0.623,0.074-0.921,0.222c-0.298,0.147-0.547,0.328-0.746,0.54c-0.405,0.433-0.687,0.817-0.844,1.153l-0.103,0.227
		l-0.782,8.854h-3.068l0.772-8.432C22.336,102.679,22.35,102.367,22.35,102.058z"/>
	<path style="fill:#FFFFFF;" d="M39.82,111.426h-3.14v-13.28h3.14V111.426z"/>
	<path style="fill:#FFFFFF;" d="M45.329,98.146h6.99v2.038l-1.802,6.312l-1.112,4.931h-3.058l1.112-4.931l1.699-5.951h-6.97v-5.137
		h3.14V98.146z"/>
	<path style="fill:#FFFFFF;" d="M54.594,111.426V98.383c0.501-0.11,1.268-0.212,2.301-0.304c1.033-0.093,1.975-0.14,2.826-0.14
		s1.565,0.048,2.142,0.145c0.576,0.096,1.06,0.243,1.452,0.442c0.391,0.199,0.712,0.428,0.962,0.685
		c0.25,0.258,0.444,0.578,0.582,0.963s0.23,0.773,0.278,1.168c0.048,0.396,0.072,0.863,0.072,1.405v8.679h-3.15v-8.688
		c0-1.586-0.872-2.378-2.615-2.378c-0.474,0-1.04,0.023-1.699,0.071v10.995H54.594z"/>
	<path style="fill:#FFFFFF;" d="M73.917,111.426V98.383c0.501-0.11,1.268-0.212,2.301-0.304c1.033-0.093,2.016-0.14,2.949-0.14
		c1.908,0,3.279,0.309,4.113,0.927c0.834,0.618,1.251,1.609,1.251,2.976v9.584H73.917z M81.381,109.028v-7.186
		c0-0.625-0.244-1.033-0.731-1.226c-0.425-0.171-1.053-0.257-1.884-0.257c-0.474,0-1.04,0.023-1.699,0.071v8.597H81.381z"/>
	<path style="fill:#FFFFFF;" d="M87.63,106.938v-8.792h3.14v6.136l-2.09,2.656H87.63z"/>
	<path style="fill:#FFFFFF;" d="M100.396,111.426h-6.013l-1.122-13.28h3.006l0.557,6.65c0.082,0.007,0.185,0.011,0.309,0.011
		c0.542,0,0.945-0.145,1.21-0.433c0.264-0.288,0.423-0.769,0.479-1.441l0.391-4.787h2.985l-0.381,4.756
		c-0.212,2.697-1.619,4.046-4.221,4.046c-0.144,0-0.34-0.006-0.587-0.021l0.176,2.101h3.355c1.146,0,2.028-0.446,2.646-1.338
		c0.617-0.893,0.991-2.121,1.122-3.687l0.494-5.857h3.006l-0.494,5.775c-0.11,1.249-0.285,2.251-0.525,3.006
		C105.848,109.927,103.717,111.426,100.396,111.426z"/>
	<path style="fill:#FFFFFF;" d="M112.745,110.886c-0.244,0.188-0.568,0.36-0.973,0.515c-0.405,0.154-0.786,0.231-1.144,0.231
		c-0.356,0-0.748-0.038-1.173-0.113l0.227-2.913c0.014,0.014,0.101,0.032,0.262,0.057c0.161,0.023,0.323,0.036,0.484,0.036
		s0.374-0.006,0.639-0.016c0.264-0.011,0.588-0.077,0.973-0.201c0.542-0.171,0.971-0.497,1.286-0.978
		c0.316-0.48,0.474-1.04,0.474-1.679v-3.747c0-0.789-0.191-1.294-0.576-1.514c-0.172-0.096-0.392-0.144-0.659-0.144
		c-0.583,0-1.098,0.059-1.544,0.175l-0.236,0.062v-2.48c0.604-0.158,1.286-0.237,2.048-0.237c0.763,0,1.387,0.072,1.874,0.217
		c0.487,0.144,0.873,0.331,1.158,0.561c0.285,0.23,0.51,0.532,0.675,0.906c0.164,0.374,0.272,0.748,0.324,1.122
		c0.051,0.374,0.077,0.818,0.077,1.333v9.348h-2.378l-0.464-1.936h-0.154c-0.103,0.206-0.268,0.443-0.494,0.711
		S112.988,110.698,112.745,110.886z"/>
	<path style="fill:#FFFFFF;" d="M120.388,102.058c0-1.229-0.25-2.536-0.751-3.922h3.006c0.103,0.268,0.206,0.579,0.309,0.937
		l0.278,1.102h0.195c0.027-0.062,0.068-0.143,0.124-0.242c0.055-0.1,0.193-0.278,0.417-0.535c0.223-0.258,0.472-0.484,0.746-0.68
		s0.65-0.374,1.127-0.535c0.478-0.161,1.013-0.242,1.606-0.242s1.134,0.113,1.621,0.34s0.881,0.525,1.179,0.896
		c0.299,0.371,0.544,0.82,0.736,1.349c0.336,0.927,0.505,2.056,0.505,3.388v7.515h-5.684v-2.398h2.472v-4.756
		c0-1.222-0.113-2.083-0.34-2.584c-0.104-0.227-0.233-0.439-0.392-0.639c-0.315-0.412-0.816-0.618-1.503-0.618
		c-0.315,0-0.623,0.074-0.922,0.222c-0.298,0.147-0.547,0.328-0.746,0.54c-0.405,0.433-0.687,0.817-0.844,1.153l-0.104,0.227
		l-0.782,8.854h-3.067l0.771-8.432C120.375,102.679,120.388,102.367,120.388,102.058z"/>
	<path style="fill:#FFFFFF;" d="M142.44,98.146c0.48,1.407,0.721,3.003,0.721,4.787v13.559h-3.14v-13.559
		c0-1.784-0.24-3.38-0.721-4.787H142.44z"/>
	<path style="fill:#FFFFFF;" d="M145.003,101.317c0.351-1.435,0.954-3.082,1.813-4.941h2.254c-0.46,1.867-0.807,3.586-1.039,5.157
		h-2.883L145.003,101.317z M151.624,96.376h2.255c-0.46,1.867-0.807,3.586-1.04,5.157h-2.883l-0.145-0.216
		c0.151-0.624,0.398-1.405,0.741-2.342C150.896,98.038,151.252,97.172,151.624,96.376z"/>
	<path style="fill:#FFFFFF;" d="M157.986,98.146h6.99v2.038l-1.802,6.312l-1.112,4.931h-3.058l1.112-4.931l1.698-5.951h-6.97v-5.137
		h3.141V98.146z"/>
	<path style="fill:#FFFFFF;" d="M176.661,98.146v2.275c-0.288,0.109-0.591,0.271-0.906,0.483c-0.343,0.254-0.58,0.557-0.71,0.906
		c-0.131,0.35-0.196,0.807-0.196,1.369v8.246h-3.14v-8.318c0-0.377,0.054-0.721,0.16-1.029c0.105-0.309,0.234-0.549,0.386-0.721
		c0.309-0.356,0.59-0.583,0.844-0.68l0.165-0.062v-0.072h-7.217v-2.398H176.661z"/>
	<path style="fill:#FFFFFF;" d="M178.699,98.126c0.583-0.124,1.208-0.186,1.874-0.186c0.665,0,1.233,0.07,1.703,0.211
		c0.471,0.141,0.854,0.331,1.148,0.571c0.295,0.241,0.531,0.543,0.71,0.906c0.315,0.632,0.474,1.448,0.474,2.45v5.405
		c0,0.645-0.043,1.295-0.129,1.95c-0.086,0.656-0.17,1.151-0.252,1.488l-0.134,0.504h-6.002v-2.398h3.191
		c0.124-0.528,0.186-1.317,0.186-2.368v-4.581c0-0.789-0.192-1.294-0.576-1.514c-0.172-0.096-0.385-0.144-0.639-0.144
		c-0.521,0-1.04,0.059-1.555,0.175V98.126z"/>
</g>
</svg>
