<svg version="1.1"  xmlns="http://www.w3.org/2000/svg" xmlns:xlink="http://www.w3.org/1999/xlink" x="0px" y="0px"
	 viewBox="0 0 27.555 20.165" style="enable-background:new 0 0 27.555 20.165;" xml:space="preserve">
<g>
	<g>
		<path style="fill:#FFFFFF;" d="M6.123,10.965c0.127,0.107,0.264,0.201,0.413,0.275c1.376,4.454,8.33,4.518,9.724-0.001
			c0.684-0.344,1.14-1.057,1.355-1.773c0.268-0.891,0.246-1.992-0.252-2.779c-0.003-0.378-0.003-1.045-0.011-1.113
			c-0.277-2.35-1.191-4.125-2.966-4.992C13.558,0.177,12.522,0.002,11.313,0C7.511-0.007,5.84,2.211,5.444,5.574
			c-0.008,0.069-0.009,0.731-0.012,1.11C5.102,7.198,4.999,7.881,5.02,8.473C5.052,9.396,5.404,10.36,6.123,10.965z M6.294,7.014
			c0.14-0.128,0.377-0.081,0.474-0.19C7.346,6.168,7.085,4.36,8.407,3.976c1.031-0.3,1.393,0.437,3,0.44s1.969-0.74,3-0.44
			c1.323,0.384,1.041,2.193,1.619,2.848c0.14,0.159,0.385,0.051,0.562,0.319c0.379,0.573,0.363,1.41,0.165,2.067
			c-0.131,0.436-0.402,0.952-0.816,1.189c-0.129,0.074-0.274,0.112-0.415,0.158c-0.056,0.195-0.108,0.391-0.18,0.581
			c-1.316,3.492-6.714,3.403-7.93-0.113c-0.052-0.152-0.094-0.307-0.137-0.461c-0.211-0.074-0.403-0.138-0.576-0.283
			c-0.522-0.439-0.76-1.166-0.784-1.838C5.9,8.012,5.959,7.321,6.294,7.014z"/>
		<path style="fill:#FFFFFF;" d="M16.067,14.167h-0.662l-2.295,5.311l-0.594-1.702c0.16-0.07,0.271-0.189,0.307-0.376l0.208-1.068
			c0.045-0.234,0.008-1.098-0.153-1.277c-0.124-0.138-0.298-0.889-0.514-0.889h-1.937c-0.215,0-0.389,0.758-0.514,0.896
			c-0.161,0.179-0.197,0.719-0.153,0.953l0.208,1.249c0.036,0.186,0.147,0.42,0.307,0.489l-0.594,1.806l-2.295-5.166l-5.057,1.645
			C1.334,16.476,0,17.457,0,18.624v1.541h20.136C17.782,19.167,16.08,17.167,16.067,14.167z"/>
	</g>
	<path style="fill:#FFFFFF;" d="M22.178,9.162c-2.97,0-5.377,2.408-5.377,5.377s2.408,5.377,5.377,5.377
		c2.97,0,5.377-2.408,5.377-5.377S25.148,9.162,22.178,9.162z M23.6,17.809c-0.458-0.035-3.44-0.751-4.697-4.299
		c-0.254-0.744,0.06-1.944,0.911-2.212c0.864-0.279,1.305,0.927,1.431,1.69l-0.753,0.753c0,0-0.021,0.47,1.01,1.501
		c1.03,1.03,1.501,1.009,1.501,1.009l0.875-0.874c0.553,0.117,1.662,0.821,1.662,0.821C25.401,17.238,24.696,17.925,23.6,17.809z"/>
</g>
</svg>
