<?xml version="1.0" encoding="iso-8859-1"?>
<!-- Generator: Adobe Illustrator 19.0.1, SVG Export Plug-In . SVG Version: 6.00 Build 0)  -->
<svg version="1.1" id="Layer_1" xmlns="http://www.w3.org/2000/svg" xmlns:xlink="http://www.w3.org/1999/xlink" x="0px" y="0px"
	 viewBox="0 0 29.697 24.402" style="enable-background:new 0 0 29.697 24.402;" xml:space="preserve">
<g>
	<path style="fill:#FFFFFF;" d="M16.204,17.642l-1.629-0.907c-0.65,2.842-2.263,4.722-3.928,5.766
		c-1.716-1.082-3.415-3.357-3.942-5.903l-3.821,1.681C1.594,18.847,0,20.074,0,21.655v0.608v0.418c0,0.529,0.342,1.721,0.871,1.721
		h19.553c0.001,0,0.002,0,0.002,0C17.969,22.402,16.248,20.492,16.204,17.642z"/>
	<path style="fill:#FFFFFF;" d="M6.472,15.629c2.282,2.021,6.117,2.039,8.397,0l1.397,0.589c0.245-1.86,1.204-3.493,2.599-4.611
		c-0.198-1.748-0.48-3.464-0.809-4.857c-0.624-2.645-1.827-4.94-4.449-6.121c-1.523-0.686-3.269-0.817-4.881-0.363
		C6.872,0.787,5.311,2.037,4.354,3.697C3.857,4.559,3.576,5.515,3.338,6.47c-0.753,3.022-1.31,7.76-1.17,10.958L6.472,15.629z
		 M10.668,1.654c3.233,0,5.91,2.386,6.366,5.493c-1.117-2.397-3.548-4.058-6.366-4.058S5.42,4.75,4.302,7.147
		C4.758,4.04,7.434,1.654,10.668,1.654z M4.264,8.719c0.125,0.007,0.252,0.005,0.377,0.003c4.401-0.068,6.958-3.777,7.87-3.579
		c0.969,0.211,1.572,2.44,3.731,2.727c0.265,0.114,0.426,0.154,0.594,0.408c0.451,0.681,0.431,1.677,0.196,2.458
		c-0.156,0.519-0.478,1.132-0.971,1.413c-0.153,0.088-0.326,0.133-0.493,0.188c-0.066,0.232-0.129,0.465-0.214,0.691
		c-1.565,4.152-7.984,4.046-9.43-0.135c-0.062-0.181-0.112-0.365-0.163-0.549c-0.251-0.088-0.479-0.164-0.685-0.336
		c-0.621-0.522-0.904-1.387-0.932-2.185C4.133,9.513,4.155,9.088,4.264,8.719z"/>
</g>
<path style="fill:#FFFFFF;" d="M23.303,10.889c-3.532,0-6.394,2.863-6.394,6.394c0,3.532,2.863,6.394,6.394,6.394
	c3.532,0,6.394-2.863,6.394-6.394C29.698,13.752,26.835,10.889,23.303,10.889z M24.994,21.172c-0.544-0.041-4.091-0.893-5.585-5.112
	c-0.303-0.885,0.071-2.311,1.083-2.63c1.027-0.332,1.552,1.103,1.702,2.01l-0.896,0.895c0,0-0.025,0.559,1.2,1.785
	c1.224,1.225,1.785,1.2,1.785,1.2l1.041-1.04c0.658,0.139,1.976,0.976,1.976,0.976C27.136,20.492,26.297,21.309,24.994,21.172z"/>
</svg>
