<?xml version="1.0" encoding="iso-8859-1"?>
<!-- Generator: Adobe Illustrator 19.0.1, SVG Export Plug-In . SVG Version: 6.00 Build 0)  -->
<svg version="1.1" id="Layer_1" xmlns="http://www.w3.org/2000/svg" xmlns:xlink="http://www.w3.org/1999/xlink" x="0px" y="0px"
	 viewBox="0 0 200 50" style="enable-background:new 0 0 200 50;" xml:space="preserve">
<g>
	<g>
		<rect style="fill:none;" width="50" height="50"/>
		<rect x="50" style="fill:none;" width="50" height="50"/>
		<rect x="100" style="fill:none;" width="50" height="50"/>
		<rect x="150" style="fill:none;" width="50" height="50"/>
	</g>
	<g>
		<path style="fill:#2ecc71;" d="M85.506,33.856c-0.461-1.517-4.19-3.572-5.924-4.328c-0.118-0.051-0.253-0.049-0.368,0.007
			l-4.204,2.032l-3.768-2.024c-0.113-0.061-0.248-0.069-0.368-0.022c-1.51,0.588-5.918,2.649-6.359,4.354
			c-0.315,1.217-0.44,1.814-0.446,1.839c-0.006,0.03-0.009,0.06-0.009,0.09c0,0.598,0.301,0.881,0.553,1.013
			c0.371,0.194,0.816,0.178,1.275,0.169c0.098-0.002,0.199-0.004,0.3-0.004h17.626c0.132,0,0.264,0.005,0.39,0.009
			C84.332,36.996,84.457,37,84.576,37c0.337,0,1.364,0,1.364-1.138C85.94,35.401,85.897,35.143,85.506,33.856z M84.576,36.119
			c-0.109,0-0.223-0.004-0.341-0.008c-0.137-0.005-0.279-0.01-0.421-0.01H66.187c-0.107,0-0.213-0.002-0.317,0
			c-0.094,0.002-0.187,0-0.276,0c-0.001,0-0.002,0-0.003,0c-0.121,0-0.434,0.003-0.571-0.068c-0.027-0.014-0.072-0.034-0.079-0.186
			c0.036-0.164,0.166-0.747,0.426-1.751c0.257-0.995,3.392-2.774,5.638-3.679l3.785,2.033c0.124,0.067,0.273,0.07,0.4,0.009
			l4.223-2.041c2.482,1.115,5.002,2.883,5.249,3.695c0.376,1.238,0.395,1.417,0.395,1.75C85.059,36.065,85.059,36.119,84.576,36.119
			z"/>
		<path style="fill:#2ecc71;" d="M70.374,24.343c0.238,0.594,0.509,1.02,0.794,1.468c0.08,0.127,0.162,0.255,0.245,0.39
			c0.286,0.469,0.576,0.821,0.899,1.087c-0.022,0.434-0.076,0.968-0.173,1.365c-0.058,0.236,0.087,0.475,0.323,0.533
			c0.236,0.058,0.475-0.086,0.533-0.323c0.132-0.536,0.193-1.268,0.207-1.775c0.004-0.149-0.067-0.289-0.189-0.374
			c-0.301-0.208-0.57-0.517-0.847-0.972c-0.085-0.14-0.17-0.273-0.253-0.404c-0.305-0.48-0.57-0.895-0.794-1.518
			c-0.058-0.162-0.227-0.277-0.399-0.291c-0.043-0.003-0.159-0.073-0.222-0.187c-0.445-0.816-0.635-2.064-0.552-2.318
			c0.011-0.007,0.061-0.024,0.168-0.023c0.125,0.01,0.24-0.043,0.326-0.13c0.086-0.086,0.132-0.205,0.128-0.326
			c-0.093-2.528,0.837-3.887,1.635-4.582c0.146-0.128,0.192-0.336,0.112-0.513c-0.005-0.012-0.011-0.023-0.017-0.035
			c0.375-0.253,1.007-0.236,1.015-0.234l0.024-0.44l0.363-0.25c-0.029-0.066,0.03-0.228,0.113-0.375
			c0.25,0.209,0.584,0.358,0.897,0.445c0.905,0.251,1.562,0.509,1.969,0.688c1.878,0.744,2.9,2.675,2.803,5.296
			c-0.004,0.118,0.039,0.233,0.12,0.319c0.081,0.086,0.193,0.136,0.312,0.138c0.081,0.002,0.123,0.018,0.12,0.01
			c0.095,0.269-0.096,1.518-0.541,2.334c-0.063,0.115-0.177,0.186-0.221,0.192c-0.161,0.022-0.297,0.131-0.353,0.284
			c-0.228,0.616-0.505,1.05-0.798,1.51c-0.089,0.139-0.179,0.281-0.27,0.429c-0.267,0.439-0.51,0.735-0.765,0.931
			c-0.109,0.084-0.172,0.214-0.171,0.352c0.003,0.401,0.036,1.177,0.224,1.869c0.054,0.196,0.231,0.325,0.425,0.325
			c0.039,0,0.077-0.005,0.116-0.016c0.235-0.064,0.373-0.307,0.309-0.541c-0.137-0.502-0.178-1.083-0.189-1.438
			c0.275-0.251,0.534-0.582,0.803-1.023c0.087-0.143,0.174-0.279,0.26-0.414c0.275-0.431,0.559-0.876,0.803-1.475
			c0.242-0.109,0.462-0.312,0.599-0.562c0.513-0.941,0.809-2.452,0.598-3.049c-0.085-0.241-0.258-0.417-0.496-0.514
			c-0.004-2.792-1.245-4.935-3.351-5.769c-0.418-0.184-1.118-0.46-2.074-0.725c-0.42-0.116-0.623-0.307-0.644-0.343
			c-0.019-0.118-0.086-0.223-0.184-0.291c-0.098-0.068-0.22-0.094-0.337-0.07c-0.385,0.077-0.721,0.592-0.854,0.92
			c-0.055,0.136-0.09,0.269-0.104,0.397c-0.583,0.082-1.4,0.363-1.626,1.185c-0.026,0.074-0.034,0.154-0.021,0.231
			c-0.764,0.854-1.492,2.245-1.495,4.441c-0.267,0.09-0.461,0.273-0.552,0.534c-0.212,0.596,0.084,2.106,0.598,3.047
			C69.87,24.033,70.111,24.242,70.374,24.343z"/>
	</g>
	<g>
		<path style="fill:#2ecc71;" d="M37.149,32.857c-0.065-0.438-0.349-0.824-0.87-1.18l-5.367-3.673
			c-0.277-0.189-0.599-0.289-0.932-0.289c-0.518,0-1.004,0.245-1.301,0.657l-1.393,1.972c-0.109,0.153-0.135,0.341-0.142,0.523
			c-0.533,0.078-2.077,0.031-4.612-2.503c-2.451-2.447-3.611-4.247-3.461-5.358c0.027-0.013,0.047-0.04,0.071-0.058
			c0.128-0.035,0.245-0.079,0.34-0.153l1.924-1.457c0.686-0.518,0.821-1.525,0.299-2.248l-3.847-5.246
			c-0.74-1.008-1.61-1.113-2.545-0.311c-0.591,0.506-1.571,1.73-1.978,2.465c-0.223,0.394-0.315,0.801-0.276,1.21
			c-0.142,0.589-0.452,2.326,0.064,4.748c0.701,3.292,2.597,6.453,5.635,9.394c5.08,4.915,9.542,5.649,11.75,5.65h0
			c1.298,0,2.204-0.238,2.621-0.414c0.388,0.016,0.771-0.093,1.145-0.317c0.724-0.428,1.913-1.449,2.399-2.059
			C37.058,33.735,37.213,33.292,37.149,32.857z M35.965,33.643c-0.419,0.526-1.526,1.475-2.155,1.847
			c-0.085,0.051-0.169,0.088-0.253,0.119c-0.612-0.266-1.69-0.829-2.013-1.233c-0.156-0.195-0.442-0.227-0.638-0.071
			c-0.196,0.157-0.227,0.442-0.071,0.638c0.285,0.356,0.83,0.711,1.328,0.988c-0.398,0.086-0.951,0.162-1.655,0.162h0
			c-2.07,0-6.268-0.701-11.119-5.395c-6.917-6.696-5.603-12.686-5.431-13.346c0.015-0.059,0.019-0.121,0.01-0.181
			c-0.035-0.24,0.016-0.478,0.159-0.731c0.355-0.643,1.268-1.783,1.777-2.22c0.234-0.202,0.442-0.308,0.602-0.308
			c0.068,0,0.277,0,0.62,0.467l3.845,5.243c0.233,0.323,0.183,0.767-0.113,0.99l-1.903,1.444c-0.008,0.004-0.021,0.008-0.034,0.012
			c-0.502-0.385-1.188-0.966-1.405-1.297c-0.136-0.21-0.418-0.268-0.628-0.132c-0.21,0.137-0.269,0.418-0.132,0.628
			c0.293,0.45,1.001,1.044,1.454,1.4c-0.361,1.478,0.787,3.451,3.679,6.339c2.305,2.304,3.984,2.787,4.988,2.787
			c0.44,0,0.77-0.098,0.931-0.19c0.121-0.069,0.204-0.19,0.225-0.328c0.009-0.062,0.012-0.151,0.013-0.249
			c0.001-0.054,0.002-0.148,0.008-0.2l1.362-1.927c0.207-0.288,0.669-0.36,0.983-0.146l5.367,3.672
			c0.296,0.202,0.459,0.392,0.484,0.564C36.276,33.157,36.181,33.377,35.965,33.643z"/>
		<path style="fill:#2ecc71;" d="M24.482,18.226c3.509,1.072,6.254,3.803,7.344,7.306c0.06,0.194,0.24,0.319,0.433,0.319
			c0.045,0,0.09-0.007,0.135-0.02c0.239-0.074,0.373-0.329,0.299-0.568c-1.179-3.79-4.15-6.745-7.946-7.904
			c-0.24-0.075-0.493,0.062-0.566,0.301C24.108,17.9,24.243,18.153,24.482,18.226z"/>
		<path style="fill:#2ecc71;" d="M25.105,14.865c5.261,1.244,9.283,5.483,10.247,10.801c0.04,0.219,0.231,0.373,0.446,0.373
			c0.027,0,0.054-0.002,0.081-0.007c0.247-0.045,0.41-0.281,0.366-0.528c-1.028-5.672-5.319-10.195-10.931-11.522
			c-0.243-0.055-0.488,0.093-0.546,0.337C24.71,14.563,24.861,14.807,25.105,14.865z"/>
	</g>
	<g>
		<g>
			<path style="fill:#2ecc71;" d="M167.321,25.965c0.127,0.107,0.264,0.201,0.413,0.275c1.376,4.454,8.33,4.518,9.724-0.001
				c0.684-0.344,1.14-1.057,1.355-1.773c0.268-0.891,0.246-1.992-0.252-2.779c-0.003-0.378-0.003-1.045-0.011-1.113
				c-0.277-2.35-1.191-4.125-2.966-4.992c-0.828-0.405-1.864-0.58-3.073-0.582c-3.802-0.007-5.473,2.211-5.869,5.574
				c-0.008,0.069-0.009,0.731-0.012,1.11c-0.33,0.514-0.433,1.197-0.412,1.789C166.25,24.396,166.602,25.36,167.321,25.965z
				 M167.492,22.014c0.14-0.128,0.377-0.081,0.474-0.19c0.578-0.656,0.317-2.464,1.639-2.848c1.031-0.3,1.393,0.437,3,0.44
				c1.607,0.003,1.969-0.74,3-0.44c1.323,0.384,1.041,2.193,1.619,2.848c0.14,0.159,0.385,0.051,0.562,0.319
				c0.379,0.573,0.363,1.41,0.165,2.067c-0.131,0.436-0.402,0.952-0.816,1.189c-0.129,0.074-0.274,0.112-0.415,0.158
				c-0.056,0.195-0.108,0.391-0.18,0.581c-1.316,3.492-6.714,3.403-7.93-0.113c-0.052-0.152-0.094-0.307-0.137-0.461
				c-0.211-0.074-0.403-0.138-0.576-0.283c-0.522-0.439-0.76-1.166-0.784-1.838C167.098,23.012,167.157,22.321,167.492,22.014z"/>
			<path style="fill:#2ecc71;" d="M177.265,29.167h-0.662l-2.295,5.311l-0.594-1.702c0.16-0.07,0.271-0.189,0.307-0.376l0.208-1.068
				c0.045-0.234,0.008-1.098-0.153-1.277c-0.124-0.138-0.298-0.889-0.514-0.889h-1.937c-0.215,0-0.389,0.758-0.514,0.896
				c-0.161,0.179-0.197,0.719-0.153,0.953l0.208,1.249c0.036,0.186,0.147,0.42,0.307,0.489l-0.594,1.806l-2.295-5.166l-5.057,1.645
				c-0.995,0.438-2.329,1.419-2.329,2.586v1.541h20.136C178.98,34.167,177.278,32.167,177.265,29.167z"/>
		</g>
		<path style="fill:#2ecc71;" d="M183.376,24.162c-2.97,0-5.377,2.408-5.377,5.377s2.408,5.377,5.377,5.377
			c2.97,0,5.377-2.408,5.377-5.377S186.346,24.162,183.376,24.162z M184.798,32.809c-0.458-0.035-3.44-0.751-4.697-4.299
			c-0.254-0.744,0.06-1.944,0.911-2.212c0.864-0.279,1.305,0.927,1.431,1.69l-0.753,0.753c0,0-0.021,0.47,1.01,1.501
			c1.03,1.03,1.501,1.009,1.501,1.009l0.875-0.874c0.553,0.117,1.662,0.821,1.662,0.821
			C186.599,32.238,185.894,32.925,184.798,32.809z"/>
	</g>
	<g>
		<g>
			<path style="fill:#2ecc71;" d="M126.406,30.407l-1.629-0.907c-0.65,2.842-2.263,4.722-3.928,5.766
				c-1.716-1.082-3.415-3.357-3.942-5.903l-3.821,1.681c-1.29,0.568-2.884,1.795-2.884,3.376v0.608v0.418
				c0,0.529,0.342,1.721,0.871,1.721h19.553c0.001,0,0.002,0,0.002,0C128.171,35.167,126.45,33.257,126.406,30.407z"/>
			<path style="fill:#2ecc71;" d="M116.674,28.394c2.282,2.021,6.117,2.039,8.397,0l1.397,0.589c0.245-1.86,1.204-3.493,2.599-4.611
				c-0.198-1.748-0.48-3.464-0.809-4.857c-0.624-2.645-1.827-4.94-4.449-6.121c-1.523-0.686-3.269-0.817-4.881-0.363
				c-1.854,0.521-3.415,1.771-4.372,3.431c-0.497,0.862-0.778,1.818-1.016,2.773c-0.753,3.022-1.31,7.76-1.17,10.958L116.674,28.394
				z M120.87,14.419c3.233,0,5.91,2.386,6.366,5.493c-1.117-2.397-3.548-4.058-6.366-4.058c-2.818,0-5.248,1.661-6.366,4.058
				C114.96,16.805,117.636,14.419,120.87,14.419z M114.466,21.484c0.125,0.007,0.252,0.005,0.377,0.003
				c4.401-0.068,6.958-3.777,7.87-3.579c0.969,0.211,1.572,2.44,3.731,2.727c0.265,0.114,0.426,0.154,0.594,0.408
				c0.451,0.681,0.431,1.677,0.196,2.458c-0.156,0.519-0.478,1.132-0.971,1.413c-0.153,0.088-0.326,0.133-0.493,0.188
				c-0.066,0.232-0.129,0.465-0.214,0.691c-1.565,4.152-7.984,4.046-9.43-0.135c-0.062-0.181-0.112-0.365-0.163-0.549
				c-0.251-0.088-0.479-0.164-0.685-0.336c-0.621-0.522-0.904-1.387-0.932-2.185C114.335,22.278,114.357,21.853,114.466,21.484z"/>
		</g>
		<path style="fill:#2ecc71;" d="M133.505,23.654c-3.532,0-6.394,2.863-6.394,6.394c0,3.532,2.863,6.394,6.394,6.394
			c3.532,0,6.394-2.863,6.394-6.394C139.9,26.517,137.037,23.654,133.505,23.654z M135.196,33.937
			c-0.544-0.041-4.091-0.893-5.585-5.112c-0.303-0.885,0.071-2.311,1.083-2.63c1.027-0.332,1.552,1.103,1.702,2.01l-0.896,0.895
			c0,0-0.025,0.559,1.2,1.785c1.224,1.225,1.785,1.2,1.785,1.2l1.041-1.04c0.658,0.139,1.976,0.976,1.976,0.976
			C137.338,33.257,136.499,34.074,135.196,33.937z"/>
	</g>
</g>
</svg>
